<svg xmlns="http://www.w3.org/2000/svg" xmlns:xlink="http://www.w3.org/1999/xlink" width="229" height="60" viewBox="0 0 229 60"><defs><path id="ov0xa" d="M296.76 93.29l-3.2-8.56-3.3 8.56zm-4.57-12.18h2.75l7.85 19.92h-3.3l-2.12-5.41h-7.68l-2.08 5.41h-3.34z"/><path id="ov0xb" d="M302.82 104.03a3 3 0 0 0 1.82.64c.49 0 .92-.26 1.3-.8.39-.53.76-1.48 1.11-2.84l-6.02-14.68h3.17l4.55 11.96 4.04-11.96h2.92l-6.09 16.63c-.6 1.63-1.26 2.76-2 3.4-.75.63-1.7.97-2.68.95-.4.01-.8-.04-1.19-.14-.34-.1-.66-.27-.92-.5z"/><path id="ov0xc" d="M323.9 101.04h-3.03V89.02h-4.77v-2.67h12.57v2.67h-4.77z"/><path id="ov0xd" d="M328.42 93.68a8 8 0 0 1 .53-2.92 7.15 7.15 0 0 1 3.93-4.05c1-.41 2.07-.62 3.14-.6a7.4 7.4 0 0 1 3.92 1 6.32 6.32 0 0 1 2.46 2.65l-3 .95a3.86 3.86 0 0 0-3.43-1.96 4.12 4.12 0 0 0-3.12 1.39c-.4.45-.72.98-.92 1.55a5.64 5.64 0 0 0-.34 2 5.46 5.46 0 0 0 1.3 3.56c.4.44.87.8 1.4 1.05a3.91 3.91 0 0 0 2.83.23c.7-.19 1.33-.56 1.84-1.08.22-.23.4-.5.52-.79l3.03.9a6 6 0 0 1-2.45 2.7 7.57 7.57 0 0 1-4.04 1.05 7.65 7.65 0 0 1-3.11-.62 7.31 7.31 0 0 1-3.95-4.1 7.82 7.82 0 0 1-.54-2.91z"/><path id="ov0xe" d="M350.42 101.04h-3.03V89.02h-4.77v-2.67h12.57v2.67h-4.77z"/><path id="ov0xf" d="M360.94 99.04c.73 0 1.45-.14 2.12-.41a3.65 3.65 0 0 0 1.55-1.14c.35-.25.57-.64.6-1.07V94.5a9.34 9.34 0 0 0-3.4-.63c-.95-.05-1.9.2-2.71.7a2.2 2.2 0 0 0-1.05 1.9c-.02.7.28 1.37.81 1.83.57.5 1.32.77 2.08.75zm-.84 2.27c-.68 0-1.35-.11-1.98-.35a4.5 4.5 0 0 1-3-4.25c0-.66.16-1.3.46-1.88.31-.58.75-1.08 1.28-1.46a6.2 6.2 0 0 1 1.96-.96 8.82 8.82 0 0 1 2.51-.33 11.54 11.54 0 0 1 3.88.67v-1.01a3.4 3.4 0 0 0-.93-2.54c-.62-.61-1.51-.91-2.67-.91-.8 0-1.58.14-2.32.43-.82.33-1.61.75-2.34 1.25l-.96-1.96a10.4 10.4 0 0 1 5.9-1.91c2.02 0 3.59.51 4.71 1.54s1.7 2.51 1.7 4.44v5.3c0 .66.28 1 .82 1.01v2.64a8.68 8.68 0 0 1-1.4.14c-.5.03-1-.13-1.4-.45-.32-.3-.53-.7-.59-1.15l-.08-.93a6.53 6.53 0 0 1-2.43 1.98c-.97.46-2.04.7-3.12.69z"/><path id="ov0xg" d="M381 88.9c1.41.2 2.46.7 3.15 1.52.7.8 1.05 1.9 1.05 3.26 0 2.83-1.4 4.46-4.2 4.89zm-3.08 9.69a4.93 4.93 0 0 1-3.22-1.56 5.03 5.03 0 0 1-1.05-3.35c0-1.4.35-2.5 1.05-3.3.7-.81 1.78-1.3 3.22-1.5zM381 80.54h-3.08v5.64c-2.38.26-4.2 1.07-5.47 2.43a7.23 7.23 0 0 0-1.91 5.15c0 2.08.64 3.78 1.9 5.11 1.28 1.33 3.1 2.11 5.48 2.36V107H381v-5.8c2.34-.27 4.14-1.06 5.4-2.38a7.05 7.05 0 0 0 1.87-5.07c.01-.96-.15-1.91-.48-2.82a6.6 6.6 0 0 0-1.4-2.29 7.35 7.35 0 0 0-2.28-1.6 10 10 0 0 0-3.1-.84z"/><path id="ov0xh" d="M400 88.9c1.41.2 2.46.7 3.15 1.52.7.8 1.05 1.9 1.05 3.26 0 2.83-1.4 4.46-4.2 4.89zm-3.07 9.69a4.93 4.93 0 0 1-3.21-1.56 5.03 5.03 0 0 1-1.06-3.35c0-1.4.34-2.5 1.04-3.3.7-.81 1.78-1.3 3.22-1.5zM400 80.54h-3.08v5.64c-2.38.26-4.2 1.07-5.47 2.43a7.23 7.23 0 0 0-1.91 5.15c0 2.08.64 3.78 1.9 5.11 1.28 1.33 3.1 2.11 5.48 2.36V107H400v-5.8c2.34-.27 4.14-1.06 5.4-2.38a7.05 7.05 0 0 0 1.87-5.07c.01-.96-.15-1.91-.48-2.82a6.6 6.6 0 0 0-1.4-2.29 7.35 7.35 0 0 0-2.28-1.6 10 10 0 0 0-3.1-.84z"/><path id="ov0xi" d="M417.86 86.35h3.36l-5.75 7.13 6.18 7.55h-3.46l-4.8-6.06h-1.37v6.06h-3.03V86.35h3.03v6.12h1.14z"/><path id="ov0xj" d="M426.02 96.65l7.52-10.3h2.36v14.68h-3.03V90.95l-7.38 10.08h-2.5V86.35h3.03z"/><path id="ov0xk" d="M441.65 92.19h6.68v-5.84h3.03v14.68h-3.03v-6.24h-6.68v6.24h-3.03V86.35h3.03z"/><path id="ov0xl" d="M454.55 82.87h-1.04v2.68h-.5v-2.68h-1.04v-.42h2.58z"/><path id="ov0xm" d="M457.59 85.56v-2.25l-.93 1.7h-.27l-.94-1.7v2.25h-.49v-3.11h.53l1.04 1.9 1.02-1.9h.53v3.11z"/><path id="ov0xn" d="M259.31 88.82l.67-.21v-.1l1.34-.72h.36v.2l-.02-.03-.27.14.01.1.27 1.3h-.01l.03.04.08.37.7 3.42.26.1.09-2.53h.93l.08 2.71v.4l.1.06.09-.46.76-3.68.06-.3.03-.13.27-1.3.02-.09-.27-.13h-.02v-.19h.35l1.34.71v.1l.34.12c2.02.66 3.47.83 3.68 2.14.42 2.47.9 5.28 1.16 8.33.04 1.45 0 3.03-.04 4.45a21.12 21.12 0 0 0-17.68-32.67h-.78c-1.24.05-2.47.2-3.68.46l-.09.02-.59.14h-.05l-.09.02-.13.04-.27.07-.12.03-.37.1h-.02a21.18 21.18 0 0 0-14.01 14.03l.04-.03c-.16.57-.32 1.14-.45 1.74-.23 1.03-.37 2.09-.43 3.15a19.1 19.1 0 0 0 3.53 11.1c.5.7 1.06 1.36 1.66 1.98 0-3.3.03-8.45.14-9.45.14-2.05.96-3.51 2-4.35l-.14-.51c-.02-.03-.02-.06-.02-.1-.82-3.74-.58-10.38 1.3-12.38a4.25 4.25 0 0 1 3.3-1.54 4.03 4.03 0 0 1 2.78 1.05c.17.16.34.32.5.5.06.06.13.13.18.21.23.3.41.63.55.97a6.34 6.34 0 0 1 4.4-3.13c.28-.05.57-.07.86-.07a6.2 6.2 0 0 1 5.21 3.13c-.08-.36-.1-.73-.05-1.1.02-.2.22-.16.42-.16.63.04.78-.17 2.06-.95a2.97 2.97 0 0 1 3.43.2c3.04.72 2.4 4.13 1.93 5.71-.08.27-.17.54-.28.8 0 0 .02-2.93-1.21-3.83-2.07 1.45-4.19 1.53-5.38.67-.07.18-.13.37-.17.56.09.41.13.83.13 1.25v.06l-.11 1.68c.44.4.7.97.69 1.56v1.11c0 .73-.37 1.41-1 1.79-.07.45-.2.9-.38 1.32zm-11.27-5.78l-.02-.68c-.13-.1-.24-.21-.36-.32l-.1-.1-.16-.15-.28-.3-.12-.13-.03-.03-.08-.1-.1-.1-.07-.11-.06-.1c.09.42.3.8.59 1.11a4.78 4.78 0 0 1-2.38-1.53c.1.42.31.8.62 1.1a5.98 5.98 0 0 1-2.14-1.84c-.56 1.16-1.46 2.8-2.16 2.82a5.34 5.34 0 0 1-.1-.22.73.73 0 0 0-.3.59v.76a.72.72 0 0 0 .72.73c0 1.1.86 2.41 1.83 3.14v1.52l-.22.06 1.05 2.97.37 1.04.18.52.04.09.04-.14.54-1.5 1.07-3-.22-.07v-1.52l.16-.13c.11-.1.22-.19.32-.3.04-.03.04-.02.11-.1l.21-.24.06-.07a5.29 5.29 0 0 0 .37-.52 1.95 1.95 0 0 1-.07-.48V84.6a2.08 2.08 0 0 1 .69-1.55zm-.62 3.15zm0 0a6.23 6.23 0 0 0 .04-.07l-.04.07zm-7.32 17.02c.6-2 1-4.06 1.18-6.14-.4-.4-.7-.88-.9-1.4a.07.07 0 0 0-.12.01c-.07 1.75-.13 5.02-.16 7.53zm28.83 3.8l.42-.44-.05-2.95a34.61 34.61 0 0 0-.4-4.61v-.02c0 2.5 0 5.88.03 8.02zm-10.22-13.97v-.16l-1.48-.86-.44-.25h-.5v-.54l.47-.4.18-.18.14-.14.13-.14.04-.04a5.8 5.8 0 0 0 .56-.72l.08-.11.1-.15.09-.16.12-.21.1-.22.07-.13.08-.2.08-.2.06-.2.05-.17c.08-.3.13-.59.14-.9v-.18c.56-.04.98-.51.95-1.07v-1.05c.02-.47-.28-.9-.73-1.04l.16-2.26a5.45 5.45 0 0 0-4.36-5.27A4.36 4.36 0 0 0 254 76h-.28c-.07.02-.14.02-.21.02l-.19.03h-.09c-.14.02-.28.05-.41.1l-.07.01h-.06l-.14.05-.23.08-.27.11-.19.1a4.22 4.22 0 0 0-1.16.78l-.18.16-.1.1a2.4 2.4 0 0 0-.21.23 3.55 3.55 0 0 0-.32.4l-.08.11-.17.25-.13.23-.11.22a5.24 5.24 0 0 0-.3.73l-.03.1c-.04.11-.06.22-.09.34 0 .04-.03.08-.03.13-.02.13-.05.26-.06.4v.1l-.05.52.16 2.26a.85.85 0 0 0-.4.22l-.11.13-.05.08-.05.08a.75.75 0 0 0-.04.1.34.34 0 0 0-.03.09.68.68 0 0 0-.02.08.85.85 0 0 0 0 .13v1.23a1.02 1.02 0 0 0 .99 1.06V87.36l.03.17.04.2.04.16.04.14.04.11c.01.05.04.1.04.14l.07.18.04.09.12.26.1.21.06.1.13.22.16.26c.17.24.34.47.54.69l.2.21.2.2.12.13.43.37v.59h-.5l-.43.25V92v.05l-1.49.85v.16l-.5.18c-2.9 1.02-4.99 1.3-5.28 3.35-.48 3.1-1 6.53-1.39 10.2a17.92 17.92 0 0 0 7.86 1.98h.47v-5.92l.9.51 3.63 2.1 2.25 1.3.38.21 1.63.95 1.74 1 2.38 1.37 1.02.59 6.94 4-20.87 12.04v-6.23c-7.86-2.27-13.62-6.64-17.18-12.45-2.77-4.55-4.22-9.99-4.26-16V92A25.05 25.05 0 0 1 244.2 69l.34-.15.27-.1.56-.22.6-.22c.57-.19 1.14-.36 1.7-.51l.36-.1a24.3 24.3 0 0 1 2.7-.5l.38-.04a27.67 27.67 0 0 1 3.8-.15 23.69 23.69 0 0 1 2.77.25A25.03 25.03 0 0 1 278.98 92a24.48 24.48 0 0 1-8.64 18.73.9.9 0 0 1-.98.1l-3.06-1.57a.41.41 0 0 1-.22-.32 542.9 542.9 0 0 0-1.58-12.36c-.31-2.03-2.4-2.33-5.29-3.35v.02zm5.66-6.64a3.8 3.8 0 0 1-.72.25v.02a3.8 3.8 0 0 0 .72-.25zm-7.76 5.9l-.01.07-.16.85-.08.39-.16.87-.13.69-.1.5-1.18 6.32-.04.2-.13-4.81v-.72h-1.34v.72l-.13 4.81-1.24-6.51-.1-.51-.13-.7-.17-.88-.07-.38-.16-.86v-.07l.39-.22.03.03.47.5.48.48.66.7.34.34.34.38-.34.3-.36.31-.4.37.1.22.22.48.12.24h1.34l.1-.24.22-.48.1-.22-.4-.37-.35-.32-.35-.32.33-.34.33-.34.68-.71.36-.38.05-.04.06-.07.48-.5.02-.02zm8.29-7.22c.04.05.07.11.07.18a9.22 9.22 0 0 1-.13 1.4.25.25 0 0 1-.08.13 2.95 2.95 0 0 1-1.45.45c-.14 0-.28-.02-.42-.04h-.02a3 3 0 0 1-1.01-.4.27.27 0 0 1-.07-.1v-.02a9.33 9.33 0 0 1-.13-1.4c0-.08.02-.15.07-.2.47-.51 1.46-.57 1.57-.57h.02c.11 0 1.1.06 1.58.57zm-.9 5.19l-.25.48h-.95l-.23-.48.02-.02.68-.75.7.77z"/><linearGradient id="ov0xo" x1="246.22" x2="265.03" y1="108.08" y2="71.45" gradientUnits="userSpaceOnUse"><stop offset="0" stop-color="#c20600"/><stop offset="1" stop-color="#630300"/></linearGradient></defs><g><g transform="translate(-229 -67)" fill='#fff'><use xlink:href="#ov0xa"/></g><g transform="translate(-229 -67)" fill='#fff'><use xlink:href="#ov0xb"/></g><g transform="translate(-229 -67)" fill='#fff'><use xlink:href="#ov0xc"/></g><g transform="translate(-229 -67)" fill='#fff'><use xlink:href="#ov0xd"/></g><g transform="translate(-229 -67)" fill='#fff'><use xlink:href="#ov0xe"/></g><g transform="translate(-229 -67)" fill='#fff'><use xlink:href="#ov0xf"/></g><g transform="translate(-229 -67)" fill='#fff'><use xlink:href="#ov0xg"/></g><g transform="translate(-229 -67)" fill='#fff'><use xlink:href="#ov0xh"/></g><g transform="translate(-229 -67)" fill='#fff'><use xlink:href="#ov0xi"/></g><g transform="translate(-229 -67)" fill='#fff'><use xlink:href="#ov0xj"/></g><g transform="translate(-229 -67)" fill='#fff'><use xlink:href="#ov0xk"/></g><g transform="translate(-229 -67)" fill='#fff'><use xlink:href="#ov0xl"/></g><g transform="translate(-229 -67)" fill='#fff'><use xlink:href="#ov0xm"/></g><g transform="translate(-229 -67)" fill='#fff'><use fill="#fff" xlink:href="#ov0xn"/></g></g></svg>