<svg id="Слой_1" data-name="Слой 1" xmlns="http://www.w3.org/2000/svg" width="378.65mm" height="70.69mm" viewBox="0 0 1073.34 200.37">
  <defs>
    <style>
      .cls-1 {
        fill: #666;
      }

      .cls-2 {
        fill: none;
      }

      .cls-3 {
        fill: #1f1f1d;
      }

      .cls-4 {
        fill: #ed736c;
      }

      .cls-5 {
        fill: #50b37f;
      }

      .cls-6 {
        fill: #f49c39;
      }

      .cls-7 {
        fill: #5f63a9;
      }

      .cls-8 {
        fill: #5cb5d7;
      }
    </style>
  </defs>
  <g>
    <path d="M1042.09,5h-9.16V28.75h-4.39V5h-9.2V1.19h22.75Z"/>
    <path d="M1069,28.75V8.91l-8.19,15h-2.41l-8.23-15V28.75h-4.35V1.19h4.66L1059.56,18l9.12-16.85h4.66V28.75Z"/>
    <path d="M246.21,9.41h13.24l37.82,95.91H281.33L271.2,79.25h-37l-10,26.07H208.12Zm22,58.62-15.4-41.2L236.89,68Z"/>
    <path d="M297.4,119.77a14.57,14.57,0,0,0,4.46,2.43,14.13,14.13,0,0,0,4.32.68c2.34,0,4.44-1.28,6.28-3.85s3.63-7.13,5.34-13.71l-29-70.65H304l21.88,57.54,19.45-57.54h14L330,114.77q-4.32,11.76-9.66,16.34a19.08,19.08,0,0,1-12.9,4.59,21.26,21.26,0,0,1-5.67-.68,11.32,11.32,0,0,1-4.46-2.43Z"/>
    <path d="M398.84,105.31H384.26V47.5h-23V34.67h60.52V47.5h-23Z"/>
    <path d="M420.59,69.92a38.54,38.54,0,0,1,2.57-14A34.46,34.46,0,0,1,442.07,36.4a38.09,38.09,0,0,1,15.13-2.9q10.95,0,18.84,4.79A30.46,30.46,0,0,1,487.86,51l-14.45,4.59a18.67,18.67,0,0,0-6.89-7,19,19,0,0,0-9.59-2.5,19.85,19.85,0,0,0-8.31,1.76,20.1,20.1,0,0,0-6.69,4.93,23.69,23.69,0,0,0-4.46,7.5,27.31,27.31,0,0,0-1.62,9.59,26.22,26.22,0,0,0,1.69,9.52,24.43,24.43,0,0,0,4.59,7.63,21.12,21.12,0,0,0,6.75,5.07,18.78,18.78,0,0,0,8.17,1.82,20.1,20.1,0,0,0,5.4-.74A19.27,19.27,0,0,0,471.3,88a11.7,11.7,0,0,0,2.5-3.78l14.59,4.32a28.81,28.81,0,0,1-11.75,13,36.32,36.32,0,0,1-19.45,5.07,36.86,36.86,0,0,1-15-3,35,35,0,0,1-11.55-8,36.37,36.37,0,0,1-7.43-11.68A37.51,37.51,0,0,1,420.59,69.92Z"/>
    <path d="M526.49,105.31H511.9V47.5h-23V34.67h60.52V47.5h-23Z"/>
    <path d="M573.09,106.66a26.22,26.22,0,0,1-9.52-1.69,22.93,22.93,0,0,1-7.56-4.66,21.48,21.48,0,0,1-5-7,21,21,0,0,1-1.82-8.78,19,19,0,0,1,2.16-9,21.31,21.31,0,0,1,6.15-7A30.09,30.09,0,0,1,567,63.89a42.57,42.57,0,0,1,12-1.67,56.13,56.13,0,0,1,9.86.88,50.37,50.37,0,0,1,8.78,2.36V60.6q0-7.83-4.46-12.22T580.39,44a31.23,31.23,0,0,0-11.14,2.09,56.76,56.76,0,0,0-11.28,6l-4.59-9.46q13.65-9.18,28.37-9.19t22.69,7.43q8.1,7.44,8.1,21.34V87.77q0,4.74,3.92,4.86v12.7a33.18,33.18,0,0,1-3.71.54c-1,.09-2,.14-3,.14a9.54,9.54,0,0,1-6.76-2.18,9.21,9.21,0,0,1-2.9-5.54l-.41-4.46A31.44,31.44,0,0,1,588,103.35,34.27,34.27,0,0,1,573.09,106.66Zm4-10.94a26.6,26.6,0,0,0,10.2-2,17.39,17.39,0,0,0,7.5-5.47c1.9-1.62,2.84-3.33,2.84-5.13V73.8a45.42,45.42,0,0,0-8-2.3,44.58,44.58,0,0,0-8.31-.81q-8,0-13,3.44a10.58,10.58,0,0,0-5.07,9.12,11.5,11.5,0,0,0,3.92,8.85,14.2,14.2,0,0,0,9.92,3.62Z"/>
    <path d="M673.72,34a48.1,48.1,0,0,1,14.93,4,35.46,35.46,0,0,1,11,7.77,31.73,31.73,0,0,1,6.75,11,39.32,39.32,0,0,1,2.3,13.58q0,14.87-9.05,24.38t-25.94,11.41v28H658.86V106.26q-17.16-1.74-26.34-11.35t-9.19-24.58q0-15,9.19-24.79t26.34-11.68V6.71h14.86ZM658.86,46.82q-10.4,1.35-15.47,7.16t-5.07,15.94q0,10.14,5.07,16.14t15.47,7.5Zm14.86,46.6q20.13-3.11,20.13-23.5,0-9.86-5-15.67T673.72,47Z"/>
    <path d="M765.17,34a48.1,48.1,0,0,1,14.93,4,35.46,35.46,0,0,1,11,7.77,31.73,31.73,0,0,1,6.75,11,39.32,39.32,0,0,1,2.3,13.58q0,14.87-9,24.38t-25.94,11.41v28H750.31V106.26Q733.15,104.52,724,94.91t-9.18-24.58q0-15,9.19-24.79t26.34-11.68V6.71h14.86ZM750.31,46.82Q739.92,48.17,734.84,54t-5.07,15.94q0,10.14,5.07,16.14t15.47,7.5Zm14.86,46.6q20.13-3.11,20.13-23.5,0-9.86-5-15.67T765.17,47Z"/>
    <path d="M851.08,34.67h16.21L839.6,69l29.72,36.34H852.7L829.6,76.14H823v29.18h-14.6V34.67H823V64.12h5.54Z"/>
    <path d="M890.39,84.24l36.2-49.57h11.35v70.65h-14.6V56.82l-35.53,48.49h-12V34.67h14.58Z"/>
    <path d="M965.62,62.76h32.15V34.67h14.59v70.65H997.77v-30H965.62v30H951V34.67h14.59Z"/>
    <path class="cls-1" d="M265.06,153.68a9.16,9.16,0,0,1,3.4.63,8.27,8.27,0,0,1,2.72,1.74,8.22,8.22,0,0,1,2.43,5.87,9.63,9.63,0,0,1-1.1,4.34,6.85,6.85,0,0,1-3.75,3.27,8.72,8.72,0,0,1,4.56,2.89,8.24,8.24,0,0,1,1.65,5.3,8,8,0,0,1-3.11,6.75,13.11,13.11,0,0,1-8.22,2.38h-17V153.68Zm-3.11,14a4.76,4.76,0,0,0,3.4-1.17,4.36,4.36,0,0,0,1.26-3.39,4.74,4.74,0,0,0-1-3.11,4,4,0,0,0-3.3-1.27h-8.67v8.94Zm1,14.08a4.61,4.61,0,0,0,3.59-1.43,5.06,5.06,0,0,0,.06-6.75,4.53,4.53,0,0,0-3.53-1.4h-9.51v9.58Z"/>
    <path class="cls-1" d="M278.19,153.68h7v11h6.15a15.86,15.86,0,0,1,4.69.7,11.26,11.26,0,0,1,3.92,2.13,10.51,10.51,0,0,1,2.68,3.52,12.13,12.13,0,0,1,0,9.67,10.09,10.09,0,0,1-2.68,3.46,11,11,0,0,1-3.88,2.06,15.64,15.64,0,0,1-4.66.67H278.19Zm12.75,27.53a5.87,5.87,0,0,0,4-1.33,5,5,0,0,0,1.52-4,5.25,5.25,0,0,0-1.62-4.16,5.7,5.7,0,0,0-3.88-1.43h-5.82V181.2Zm16.17-27.53h7.05v33.17h-7.05Z"/>
    <path class="cls-1" d="M337.78,153.68a9.16,9.16,0,0,1,3.4.63,8.28,8.28,0,0,1,2.71,1.72,8.22,8.22,0,0,1,2.43,5.87,9.63,9.63,0,0,1-1.1,4.34,6.85,6.85,0,0,1-3.75,3.27A8.72,8.72,0,0,1,346,172.4a8.24,8.24,0,0,1,1.65,5.3,8,8,0,0,1-3.11,6.75,13.11,13.11,0,0,1-8.22,2.38h-17V153.68Zm-3.11,14a4.76,4.76,0,0,0,3.4-1.17,4.36,4.36,0,0,0,1.26-3.39,4.74,4.74,0,0,0-1-3.11,4,4,0,0,0-3.3-1.27h-8.67v8.94Zm1,14.08a4.61,4.61,0,0,0,3.59-1.43,5.06,5.06,0,0,0,.06-6.75,4.53,4.53,0,0,0-3.53-1.4h-9.51v9.58Z"/>
    <path class="cls-1" d="M367.28,187.49a17.85,17.85,0,0,1-7.21-1.39,16.81,16.81,0,0,1-5.47-3.74,16.41,16.41,0,0,1-3.49-5.49,18.14,18.14,0,0,1,0-13.13,16.11,16.11,0,0,1,3.53-5.49,17.26,17.26,0,0,1,5.5-3.74,19,19,0,0,1,14.3,0,17.26,17.26,0,0,1,5.5,3.74,16.21,16.21,0,0,1,3.53,5.49,18.14,18.14,0,0,1,0,13.13,16.11,16.11,0,0,1-3.53,5.49,16.94,16.94,0,0,1-5.5,3.74A17.58,17.58,0,0,1,367.28,187.49Zm-10.09-17.13a12.44,12.44,0,0,0,.78,4.44,11,11,0,0,0,2.13,3.52,10,10,0,0,0,3.2,2.35,9.59,9.59,0,0,0,11.2-2.38,11.35,11.35,0,0,0,2.13-3.55,12.94,12.94,0,0,0,0-8.85,11.34,11.34,0,0,0-2.13-3.58,9.88,9.88,0,0,0-3.2-2.38,9.35,9.35,0,0,0-4-.86,9,9,0,0,0-3.91.89,10.5,10.5,0,0,0-3.2,2.41,12.15,12.15,0,0,0-3,8Z"/>
    <path class="cls-1" d="M383.58,180.83h1.88a4.92,4.92,0,0,0,2.59-1.17,7.06,7.06,0,0,0,1.78-2.89,28.75,28.75,0,0,0,1.29-5.17q.56-3.19,1.07-8.15l1.1-9.77h22.32v27.15h4.27v16h-6.21v-10H389.6v10h-6Zm25,0V159.39h-8.89l-.84,6.09a79.26,79.26,0,0,1-1.84,9.67,16.49,16.49,0,0,1-2.56,5.68Z"/>
    <path class="cls-1" d="M429.64,177,447,153.68h5.43v33.17h-7V164.08l-17,22.77h-5.76V153.68h7Z"/>
    <path class="cls-1" d="M475.58,173.09l10.8-19.41h7.18v33.17H486.7V165.1l-9.25,16.55h-3.69l-9.32-16.55v21.76h-6.85V153.68h7.25Z"/>
    <path class="cls-1" d="M540.53,186.85h-7V159.71H519.12v27.15h-7V153.68h28.4Z"/>
    <path class="cls-1" d="M561.17,187.49a18.23,18.23,0,0,1-7.18-1.36A16.47,16.47,0,0,1,544.9,177a17.52,17.52,0,0,1-1.26-6.6,17.71,17.71,0,0,1,1.26-6.63,17.16,17.16,0,0,1,3.56-5.52,16.55,16.55,0,0,1,5.53-3.74,18.75,18.75,0,0,1,7.25-1.36,17.88,17.88,0,0,1,7.15,1.4,17,17,0,0,1,5.47,3.71,15.86,15.86,0,0,1,3.46,5.39,17.56,17.56,0,0,1,1.2,6.44,10.78,10.78,0,0,1-.06,1.43c-.06.43-.09.81-.13,1.11H551.21a11.31,11.31,0,0,0,1.07,4,10.57,10.57,0,0,0,2.26,3.08,9.68,9.68,0,0,0,3.17,2,9.91,9.91,0,0,0,3.72.7,11.1,11.1,0,0,0,2.81-.35,9.74,9.74,0,0,0,2.56-1,8.77,8.77,0,0,0,2.07-1.62,7.43,7.43,0,0,0,1.42-2.09l6.08,1.71a13.87,13.87,0,0,1-5.79,6.12A18.21,18.21,0,0,1,561.17,187.49Zm10.29-19.73a11,11,0,0,0-1.07-3.87,9.75,9.75,0,0,0-5.4-4.95,10.81,10.81,0,0,0-3.82-.7,10.42,10.42,0,0,0-3.78.7,10.28,10.28,0,0,0-3.14,1.93,9.7,9.7,0,0,0-2.2,3,11.58,11.58,0,0,0-1,3.87Z"/>
    <path class="cls-1" d="M600.18,187.49a13.36,13.36,0,0,1-7.18-1.9,14.39,14.39,0,0,1-4.92-5v19.73H581V153.68h6.28v6a14.79,14.79,0,0,1,5-4.76,13.72,13.72,0,0,1,7-1.78,14.75,14.75,0,0,1,6.41,1.4,16.56,16.56,0,0,1,5,3.74,17.39,17.39,0,0,1,3.33,5.45,18,18,0,0,1,1.2,6.53,20.11,20.11,0,0,1-1.1,6.75,16.48,16.48,0,0,1-3.11,5.46,14.83,14.83,0,0,1-4.75,3.68A13.29,13.29,0,0,1,600.18,187.49Zm-2.33-6a8.67,8.67,0,0,0,4.11-1,10,10,0,0,0,3.17-2.54,11.36,11.36,0,0,0,2-3.62,12.67,12.67,0,0,0,.71-4.19,11.63,11.63,0,0,0-3-7.87,10.2,10.2,0,0,0-3.33-2.41,10,10,0,0,0-4.21-.89,9.24,9.24,0,0,0-2.85.51,11.35,11.35,0,0,0-5,3.46,7,7,0,0,0-1.36,2.57v8.69a13,13,0,0,0,1.68,2.85,12.11,12.11,0,0,0,2.3,2.28,10.88,10.88,0,0,0,2.75,1.52,8.31,8.31,0,0,0,3.07.68Z"/>
    <path class="cls-1" d="M617.45,170.24a18,18,0,0,1,1.23-6.6,16.35,16.35,0,0,1,3.53-5.45,17,17,0,0,1,5.53-3.71,18.75,18.75,0,0,1,7.25-1.36,17.38,17.38,0,0,1,9,2.25,14.42,14.42,0,0,1,5.66,6l-6.92,2.16a8.92,8.92,0,0,0-3.3-3.27,9.2,9.2,0,0,0-4.59-1.17,9.61,9.61,0,0,0-7.18,3.14,11.14,11.14,0,0,0-2.13,3.52,12.58,12.58,0,0,0-.78,4.5,12.16,12.16,0,0,0,.81,4.47,11.38,11.38,0,0,0,2.2,3.58,10.22,10.22,0,0,0,3.23,2.38,9.13,9.13,0,0,0,3.91.86,9.8,9.8,0,0,0,2.59-.35,9.11,9.11,0,0,0,2.36-1,8.87,8.87,0,0,0,1.88-1.46,5.54,5.54,0,0,0,1.2-1.78l7,2a13.57,13.57,0,0,1-5.63,6.12,17.61,17.61,0,0,1-9.32,2.38,17.87,17.87,0,0,1-7.18-1.39,16.73,16.73,0,0,1-5.53-3.77,16.92,16.92,0,0,1-3.56-5.49A17.32,17.32,0,0,1,617.45,170.24Z"/>
    <path class="cls-1" d="M668.49,187.49a17.85,17.85,0,0,1-7.21-1.39,16.81,16.81,0,0,1-5.47-3.74,16.41,16.41,0,0,1-3.49-5.49,18.14,18.14,0,0,1,0-13.13,16.11,16.11,0,0,1,3.53-5.49,17.37,17.37,0,0,1,5.5-3.74,19,19,0,0,1,14.3,0,17.26,17.26,0,0,1,5.5,3.74,16.21,16.21,0,0,1,3.53,5.49,18.14,18.14,0,0,1,0,13.13,16.11,16.11,0,0,1-3.53,5.49,16.94,16.94,0,0,1-5.5,3.74A17.58,17.58,0,0,1,668.49,187.49Zm-10.1-17.13a12.44,12.44,0,0,0,.78,4.44,11,11,0,0,0,2.13,3.52,10,10,0,0,0,3.2,2.35,9.59,9.59,0,0,0,11.2-2.38,11.35,11.35,0,0,0,2.13-3.55,12.94,12.94,0,0,0,0-8.85,11.34,11.34,0,0,0-2.13-3.58,9.88,9.88,0,0,0-3.2-2.38,9.35,9.35,0,0,0-4-.86,9,9,0,0,0-3.91.89,10.5,10.5,0,0,0-3.2,2.41,12.15,12.15,0,0,0-3,8Z"/>
    <path class="cls-1" d="M695.85,166.87h15.4V153.68h7v33.17h-7V172.77h-15.4v14.08h-7V153.68h7Z"/>
    <path class="cls-1" d="M733.93,187.49a12.69,12.69,0,0,1-4.56-.79,11,11,0,0,1-3.62-2.19,10.17,10.17,0,0,1-2.39-3.3,9.9,9.9,0,0,1-.87-4.12,8.75,8.75,0,0,1,1-4.25,10.11,10.11,0,0,1,2.94-3.3,14.44,14.44,0,0,1,4.53-2.16,21,21,0,0,1,5.79-.76,27.69,27.69,0,0,1,4.72.41,25.33,25.33,0,0,1,4.21,1.11v-2.28a7.57,7.57,0,0,0-2.13-5.74,8.53,8.53,0,0,0-6.15-2.06,15.27,15.27,0,0,0-5.34,1,27.47,27.47,0,0,0-5.4,2.82l-2.2-4.44a24.36,24.36,0,0,1,13.59-4.31q7,0,10.87,3.49t3.88,10v12c0,1.48.63,2.24,1.88,2.28v6a15.41,15.41,0,0,1-1.78.25c-.5,0-1,.06-1.46.06a4.59,4.59,0,0,1-3.2-1,4.33,4.33,0,0,1-1.39-2.6l-.19-2.09a15,15,0,0,1-5.6,4.47A16.7,16.7,0,0,1,733.93,187.49Zm1.94-5.14a12.94,12.94,0,0,0,4.88-.92,8.33,8.33,0,0,0,3.59-2.57,3.16,3.16,0,0,0,1.36-2.41V172a22.73,22.73,0,0,0-7.83-1.46,11.06,11.06,0,0,0-6.24,1.62,5,5,0,0,0-2.43,4.28,5.36,5.36,0,0,0,1.88,4.15A6.86,6.86,0,0,0,735.87,182.35Z"/>
    <path class="cls-1" d="M756.37,181a7.48,7.48,0,0,0,3.24-.86,5.6,5.6,0,0,0,2.2-2.63,21.42,21.42,0,0,0,1.52-5.26q.61-3.36,1.2-8.82l1.1-9.77H788v33.17h-7.1V159.39H772l-.84,6.09a102,102,0,0,1-2,10.55,21.83,21.83,0,0,1-2.62,6.56,8.91,8.91,0,0,1-3.88,3.46,15.18,15.18,0,0,1-5.6,1.14Z"/>
    <path class="cls-1" d="M804.57,157.17a15.18,15.18,0,0,1,4.88-3,16.27,16.27,0,0,1,5.73-1,14.68,14.68,0,0,1,4.17.57,10.36,10.36,0,0,1,3.3,1.62,7.36,7.36,0,0,1,2.17,2.6,7.83,7.83,0,0,1,.78,3.52,7.63,7.63,0,0,1-1.52,4.79,6.14,6.14,0,0,1-4.24,2.38,9,9,0,0,1,5.69,2.89,8.53,8.53,0,0,1,2,5.8,9,9,0,0,1-.94,4.15,9.56,9.56,0,0,1-2.62,3.23,11.7,11.7,0,0,1-4,2.09,17,17,0,0,1-5.11.73q-7.3,0-11.32-4.82l3.55-4.69a8.82,8.82,0,0,0,7.5,3.55,7.13,7.13,0,0,0,4.5-1.24,4.32,4.32,0,0,0,1.58-3.65q0-5.52-8.09-5.52h-2.39V166.6h2.39a8.07,8.07,0,0,0,4.85-1.27,4,4,0,0,0,1.76-3.3,3.2,3.2,0,0,0-1.26-2.7,5.42,5.42,0,0,0-3.4-1,10.3,10.3,0,0,0-6.73,2.79Z"/>
    <path class="cls-1" d="M840.93,187.49a12.69,12.69,0,0,1-4.56-.79,11,11,0,0,1-3.62-2.19,10.17,10.17,0,0,1-2.39-3.3,9.9,9.9,0,0,1-.87-4.12,8.75,8.75,0,0,1,1-4.25,10.11,10.11,0,0,1,2.94-3.3,14.44,14.44,0,0,1,4.53-2.16,21,21,0,0,1,5.79-.76,27.69,27.69,0,0,1,4.72.41,25.33,25.33,0,0,1,4.21,1.11v-2.28a7.57,7.57,0,0,0-2.13-5.74,8.53,8.53,0,0,0-6.15-2.06,15.27,15.27,0,0,0-5.34,1,27.47,27.47,0,0,0-5.4,2.82l-2.2-4.44a24.36,24.36,0,0,1,13.59-4.31q7,0,10.87,3.49t3.88,10v12c0,1.48.63,2.24,1.88,2.28v6a15.41,15.41,0,0,1-1.78.25c-.5,0-1,.06-1.46.06a4.59,4.59,0,0,1-3.2-1,4.33,4.33,0,0,1-1.39-2.6l-.19-2.09a15,15,0,0,1-5.6,4.47A16.7,16.7,0,0,1,840.93,187.49Zm1.94-5.14a12.94,12.94,0,0,0,4.88-.92,8.33,8.33,0,0,0,3.59-2.57,3.16,3.16,0,0,0,1.36-2.41V172a22.73,22.73,0,0,0-7.83-1.46,11.06,11.06,0,0,0-6.24,1.62,5,5,0,0,0-2.43,4.28,5.36,5.36,0,0,0,1.88,4.15A6.86,6.86,0,0,0,842.87,182.35Z"/>
    <path class="cls-1" d="M879.68,186.85V153.68h7v27.15h10.21V153.68H904v27.15h10.22V153.68h7v33.17Z"/>
    <path class="cls-1" d="M942.09,186.85h-7V159.71h-11v-6h29v6h-11Z"/>
    <path class="cls-1" d="M963.76,187.49a12.69,12.69,0,0,1-4.56-.79,11,11,0,0,1-3.62-2.19,10.17,10.17,0,0,1-2.39-3.3,9.9,9.9,0,0,1-.87-4.12,8.75,8.75,0,0,1,1-4.25,10.11,10.11,0,0,1,2.94-3.3,14.44,14.44,0,0,1,4.53-2.16,21,21,0,0,1,5.79-.76,27.69,27.69,0,0,1,4.72.41,25.33,25.33,0,0,1,4.21,1.11v-2.28a7.57,7.57,0,0,0-2.13-5.74,8.53,8.53,0,0,0-6.15-2.06,15.27,15.27,0,0,0-5.34,1,27.47,27.47,0,0,0-5.4,2.82l-2.2-4.44a24.36,24.36,0,0,1,13.59-4.31q7,0,10.87,3.49t3.88,10v12c0,1.48.63,2.24,1.88,2.28v6a15.41,15.41,0,0,1-1.78.25c-.5,0-1,.06-1.46.06a4.59,4.59,0,0,1-3.2-1,4.33,4.33,0,0,1-1.39-2.6l-.19-2.09a15,15,0,0,1-5.6,4.47A16.7,16.7,0,0,1,963.76,187.49Zm1.94-5.14a12.94,12.94,0,0,0,4.88-.92,8.33,8.33,0,0,0,3.59-2.57,3.16,3.16,0,0,0,1.36-2.41V172a22.73,22.73,0,0,0-7.83-1.46,11.06,11.06,0,0,0-6.24,1.62,5,5,0,0,0-2.43,4.28,5.36,5.36,0,0,0,1.88,4.15A6.86,6.86,0,0,0,965.7,182.35Z"/>
    <path class="cls-1" d="M1001.61,186.85h-7V159.71h-11v-6h29v6h-11Z"/>
    <g>
      <path class="cls-2" d="M54,183.31a2,2,0,0,0-1.73-.64H49.82v4.09h2.53a3.86,3.86,0,0,0,1.73-.41,2,2,0,0,0,.64-1.47A1.59,1.59,0,0,0,54,183.31Z"/>
      <polygon class="cls-2" points="9.04 191.09 12.61 191.09 10.72 184.15 9.04 191.09"/>
      <path class="cls-3" d="M7.14,176.6,0,199.08H6.73l.84-2.94h6.52l.83,2.94v-.21h6.92L14.72,176.6ZM9,191.09l1.73-6.92,1.89,6.92Z"/>
      <path class="cls-3" d="M59.92,187.94a8.15,8.15,0,0,0-1.47-9.25,8.63,8.63,0,0,0-6.1-2.09H43.23v22.27h6.31V192h1.73l3.58,6.92h6.92l-4.41-8.4A7.38,7.38,0,0,0,59.92,187.94ZM54,186.21a4,4,0,0,1-1.73.42H49.82v-4h2.53a2,2,0,0,1,1.73.64,1.61,1.61,0,0,1,.64,1.47,1.9,1.9,0,0,1-.7,1.52Z"/>
      <path class="cls-3" d="M94.39,182.27a5.68,5.68,0,0,1,2.52.62,4.36,4.36,0,0,1,1.73,1.73l5.46-3.15A10.88,10.88,0,0,0,94.44,176a11.78,11.78,0,1,0,0,23.55,10.37,10.37,0,0,0,5.69-1.49,11.66,11.66,0,0,0,4-4l-5.53-3.2a4.12,4.12,0,0,1-1.73,1.73,4.4,4.4,0,0,1-2.52.64,5,5,0,0,1-3.79-1.47,5.61,5.61,0,0,1-1.47-4,5.29,5.29,0,0,1,1.47-4A4.77,4.77,0,0,1,94.39,182.27Z"/>
      <polygon class="cls-3" points="138.33 184.57 132.86 184.57 132.86 176.58 126.55 176.58 126.55 198.87 132.86 198.87 132.86 190.67 138.33 190.67 138.33 198.87 144.64 198.87 144.64 176.58 138.33 176.58 138.33 184.57"/>
      <rect class="cls-3" x="168.81" y="176.6" width="6.31" height="22.29"/>
      <rect class="cls-4" x="151.57" y="91.65" width="7.57" height="68.95"/>
      <rect class="cls-4" x="167.55" y="91.65" width="7.57" height="68.95"/>
      <polygon class="cls-5" points="8.84 0 0 5.05 0 14.08 24.18 0 8.84 0"/>
      <polygon class="cls-5" points="83.46 33.01 83.46 24.18 41.62 0 0 24.18 0 33.01 41.62 8.84 83.46 33.01"/>
      <polygon class="cls-5" points="83.46 5.05 74.64 0 59.28 0 83.46 14.08 83.46 5.05"/>
      <polygon class="cls-5" points="83.46 51.93 83.46 43.09 41.62 18.92 0 43.09 0 51.93 41.62 27.96 83.46 51.93"/>
      <polygon class="cls-5" points="83.46 71.06 83.46 62.01 41.62 38.05 0 62.01 0 71.06 41.62 46.88 83.46 71.06"/>
      <polygon class="cls-5" points="41.62 65.8 72.32 83.46 83.46 83.46 83.46 81.14 41.62 56.96 0 81.14 0 83.46 11.14 83.46 41.62 65.8"/>
      <polygon class="cls-5" points="28.81 83.46 54.66 83.46 41.62 75.88 28.81 83.46"/>
      <path class="cls-6" d="M0,91.65v24.61A63.4,63.4,0,0,1,9.87,91.65Z"/>
      <path class="cls-6" d="M0,136v24.61H9.87A61.52,61.52,0,0,1,0,136Z"/>
      <path class="cls-6" d="M15.56,126.14a45.6,45.6,0,0,1,16-34.49H20.18A53.8,53.8,0,0,0,7.57,126.14a52.31,52.31,0,0,0,12.61,34.48H31.53A46.31,46.31,0,0,1,15.56,126.14Z"/>
      <path class="cls-6" d="M61.18,160.62v-5.69H61a28.81,28.81,0,0,1,0-57.6h.22V91.65H47.73a37.19,37.19,0,0,0-23.52,34.49,36.66,36.66,0,0,0,23.52,34.48Z"/>
      <path class="cls-6" d="M61.18,105.49H61a20.6,20.6,0,1,0,0,41.19h.22v-8.15H61a12.4,12.4,0,0,1,0-24.79h.22Z"/>
      <line class="cls-2" x1="61.18" y1="122.14" x2="61.18" y2="122.35"/>
      <path class="cls-6" d="M57,126.34a4,4,0,0,0,4,4h.22v-8H61A4,4,0,0,0,57,126.34Z"/>
      <polygon class="cls-7" points="106.8 83.46 91.65 68.33 91.65 79.89 95.23 83.46 106.8 83.46"/>
      <polygon class="cls-7" points="100.7 65.8 118.56 83.46 129.92 83.46 112.27 65.8 100.7 65.8"/>
      <path class="cls-7" d="M153.25,83.46,134.12,64.54A39,39,0,0,1,124,65.8L141.7,83.46Z"/>
      <path class="cls-7" d="M163.76,0a45.52,45.52,0,0,1-20.19,61.12l-.56.27,22,21.86h10.08V82L156,62.86l3.12-2.94a54.46,54.46,0,0,0,16.18-26.7V7.57A55.77,55.77,0,0,0,172.81,0Z"/>
      <path class="cls-7" d="M143.79,20.6A20.63,20.63,0,0,0,123.2,0H91.65V8.2H123.2a12.41,12.41,0,0,1,0,24.81H91.65v8.2H123.2A20.63,20.63,0,0,0,143.79,20.6Z"/>
      <path class="cls-7" d="M127.4,20.6a4.2,4.2,0,0,0-4-4.21H91.86v8.2H123.4A4,4,0,0,0,127.4,20.6Z"/>
      <path class="cls-7" d="M160.19,20.6A36.26,36.26,0,0,0,153.91,0H143.38A29.25,29.25,0,0,1,152,20.6a28.71,28.71,0,0,1-28.6,28.81H91.65V57.6H123.2A37,37,0,0,0,160.19,20.6Z"/>
      <path class="cls-7" d="M175.11,70.42V54a57.79,57.79,0,0,1-7.14,9Z"/>
      <polygon class="cls-8" points="135.18 160.62 143.38 160.62 143.38 91.65 135.18 91.65 135.18 121.93 77.58 121.93 77.58 91.65 69.38 91.65 69.38 160.62 77.58 160.62 77.58 130.34 135.18 130.34 135.18 160.62"/>
      <polygon class="cls-8" points="126.98 91.65 118.79 91.65 118.79 105.54 93.97 105.54 93.97 91.65 85.77 91.65 85.77 113.74 126.98 113.74 126.98 91.65"/>
      <rect class="cls-8" x="102.17" y="91.65" width="8.2" height="5.67"/>
      <polygon class="cls-8" points="126.98 160.62 126.98 138.53 85.77 138.53 85.77 160.62 93.97 160.62 93.97 146.73 118.79 146.73 118.79 160.62 126.98 160.62"/>
      <rect class="cls-8" x="102.17" y="154.93" width="8.2" height="5.67"/>
    </g>
  </g>
</svg>
