<svg width="90" height="103" viewBox="0 0 90 103" fill="none" xmlns="http://www.w3.org/2000/svg">
<path fill-rule="evenodd" clip-rule="evenodd" d="M87.702 63.4C89.13 61.806 90 59.702 90 57.4C90 52.438 85.962 48.4 81 48.4H63.532C65.262 43.15 66 36.184 66 33.198V30.2C66 23.584 60.616 18.2 54 18.2H51C49.624 18.2 48.424 19.136 48.09 20.472L46.456 27.01C44.166 36.166 36.896 46.268 29.372 48.104C28.054 44.768 24.8 42.4 21 42.4H3C1.344 42.4 0 43.744 0 45.4V99.4C0 101.056 1.344 102.4 3 102.4H21C24.578 102.4 27.674 100.302 29.124 97.27L39.432 100.706C42.802 101.83 46.314 102.4 49.868 102.4H75C79.962 102.4 84 98.362 84 93.4C84 92.23 83.776 91.11 83.368 90.084C87.184 89.042 90 85.544 90 81.4C90 79.098 89.13 76.994 87.702 75.4C89.13 73.806 90 71.702 90 69.4C90 67.098 89.13 64.994 87.702 63.4ZM24 93.4C24 95.054 22.654 96.4 21 96.4H6V48.4H21C22.654 48.4 24 49.746 24 51.4V93.4ZM81 66.4H75C73.344 66.4 72 65.056 72 63.4C72 61.744 73.344 60.4 75 60.4H81C82.654 60.4 84 59.054 84 57.4C84 55.746 82.654 54.4 81 54.4H51C49.344 54.4 48 53.056 48 51.4C48 49.744 49.344 48.4 51 48.4H57.128C58.74 44.952 60 37.226 60 33.198V30.2C60 26.892 57.308 24.2 54 24.2H53.342L52.276 28.466C50.822 34.284 47.53 40.6 43.47 45.364C39.312 50.242 34.706 53.222 30 54.116V91.238L41.328 95.014C44.086 95.934 46.96 96.4 49.868 96.4H75C76.654 96.4 78 95.054 78 93.4C78 91.746 76.654 90.4 75 90.4C73.344 90.4 72 89.056 72 87.4C72 85.744 73.344 84.4 75 84.4H81C82.654 84.4 84 83.054 84 81.4C84 79.746 82.654 78.4 81 78.4H75C73.344 78.4 72 77.056 72 75.4C72 73.744 73.344 72.4 75 72.4H81C82.654 72.4 84 71.054 84 69.4C84 67.746 82.654 66.4 81 66.4Z" fill="url(#paint0_linear)"/>
<path d="M15 90.4C16.6569 90.4 18 89.0568 18 87.4C18 85.7431 16.6569 84.4 15 84.4C13.3431 84.4 12 85.7431 12 87.4C12 89.0568 13.3431 90.4 15 90.4Z" fill="url(#paint1_linear)"/>
<path d="M57 0C55.3432 0 54 1.3432 54 3V9.2C54 10.8568 55.3432 12.2 57 12.2C58.6568 12.2 60 10.8568 60 9.2V3C60 1.3432 58.6568 0 57 0Z" fill="url(#paint2_linear)"/>
<path d="M44.272 13.2296L40.0294 8.98701C38.858 7.81541 36.9584 7.81541 35.7868 8.98701C34.6152 10.1586 34.6152 12.058 35.7868 13.2296L40.0294 17.4722C41.2008 18.6436 43.1006 18.6438 44.272 17.4722C45.4436 16.3006 45.4436 14.4012 44.272 13.2296Z" fill="url(#paint3_linear)"/>
<path d="M78.2133 8.98701C77.0419 7.81541 75.1423 7.81541 73.9707 8.98701L69.7281 13.2294C68.5565 14.401 68.5565 16.3004 69.7281 17.472C70.8995 18.6436 72.7991 18.6438 73.9707 17.4722L78.2133 13.2296C79.3849 12.058 79.3849 10.1586 78.2133 8.98701Z" fill="url(#paint4_linear)"/>
<defs>
<linearGradient id="paint0_linear" x1="0" y1="18.2" x2="0" y2="102.4" gradientUnits="userSpaceOnUse">
<stop stop-color="#AC0039"/>
<stop offset="1" stop-color="#E3004C"/>
</linearGradient>
<linearGradient id="paint1_linear" x1="12" y1="84.4" x2="12" y2="90.4" gradientUnits="userSpaceOnUse">
<stop stop-color="#AC0039"/>
<stop offset="1" stop-color="#E3004C"/>
</linearGradient>
<linearGradient id="paint2_linear" x1="54" y1="0" x2="54" y2="12.2" gradientUnits="userSpaceOnUse">
<stop stop-color="#AC0039"/>
<stop offset="1" stop-color="#E3004C"/>
</linearGradient>
<linearGradient id="paint3_linear" x1="34.9081" y1="8.10831" x2="34.9081" y2="18.3508" gradientUnits="userSpaceOnUse">
<stop stop-color="#AC0039"/>
<stop offset="1" stop-color="#E3004C"/>
</linearGradient>
<linearGradient id="paint4_linear" x1="68.8494" y1="8.10831" x2="68.8494" y2="18.3508" gradientUnits="userSpaceOnUse">
<stop stop-color="#AC0039"/>
<stop offset="1" stop-color="#E3004C"/>
</linearGradient>
</defs>
</svg>
