<svg width="90" height="90" viewBox="0 0 90 90" fill="none" xmlns="http://www.w3.org/2000/svg">
<path d="M86.197 82.3613H79.51V18.1672C79.51 16.0739 77.7831 14.3478 75.6888 14.3478C73.5945 14.3478 71.8676 16.0739 71.8676 18.1672V82.3613H59.063V34.0321C59.063 31.9388 57.3361 30.2128 55.2418 30.2128C53.1475 30.2128 51.4206 31.9388 51.4206 34.0321V82.3613H38.4323V52.7432C38.4323 50.6499 36.7054 48.9238 34.6111 48.9238C32.5168 48.9238 30.7899 50.6499 30.7899 52.7432V82.3613H17.9853V59.2434C17.9853 57.1501 16.2584 55.424 14.1641 55.424C12.0698 55.424 10.3429 57.1501 10.3429 59.2434V82.3613H3.82118C1.72688 82.3613 0 84.0874 0 86.1807C0 88.274 1.72688 90 3.82118 90H85.995C88.0893 90 89.9999 88.274 89.9999 86.1807C90.0182 84.069 88.2913 82.3613 86.197 82.3613Z" fill="url(#paint0_linear)"/>
<path d="M9.84405 38.9925C10.9564 38.8105 36.5777 32.8607 56.327 13.1006V20.4333C56.327 22.5076 58.0411 24.2179 60.12 24.2179C62.1989 24.2179 63.9131 22.5076 63.9131 20.2513V3.78462C63.9131 1.71036 62.1989 0 60.12 0H43.4343C41.3554 0 39.6413 1.71036 39.6413 3.78462C39.6413 5.85888 41.3554 7.56923 43.4343 7.56923H51.2574C33.1311 26.1648 8.33049 31.9873 8.14813 31.9873C6.05102 32.3694 4.9204 34.2617 5.28511 36.336C5.86866 38.7559 8.4399 39.4655 9.84405 38.9925Z" fill="url(#paint1_linear)"/>
<defs>
<linearGradient id="paint0_linear" x1="0" y1="14.3478" x2="0" y2="90" gradientUnits="userSpaceOnUse">
<stop stop-color="#AC0039"/>
<stop offset="1" stop-color="#E3004C"/>
</linearGradient>
<linearGradient id="paint1_linear" x1="5.21741" y1="0" x2="5.21741" y2="39.1304" gradientUnits="userSpaceOnUse">
<stop stop-color="#AC0039"/>
<stop offset="1" stop-color="#E3004C"/>
</linearGradient>
</defs>
</svg>
