<svg width="90" height="90" viewBox="0 0 90 90" fill="none" xmlns="http://www.w3.org/2000/svg">
<path fill-rule="evenodd" clip-rule="evenodd" d="M76.8164 21.2695H68.7305V13.1836C68.7305 5.91416 62.8163 0 55.5469 0H34.2773C27.0079 0 21.0938 5.91416 21.0938 13.1836V21.2695H13.1836C5.91416 21.2695 0 27.1837 0 34.4531V45C0 48.4374 2.20447 51.3682 5.27344 52.4566V82.0898C5.27344 86.4515 8.82193 90 13.1836 90H76.8164C81.1781 90 84.7266 86.4515 84.7266 82.0898V52.4566C87.7955 51.3682 90 48.4374 90 45V34.4531C90 27.1837 84.0858 21.2695 76.8164 21.2695ZM68.7305 42.3633H63.457V26.543H68.7305V42.3633ZM63.457 47.6367V52.9102H68.7305V47.6367H63.457ZM68.7305 58.1836V66.0938C68.7305 67.5476 67.5476 68.7305 66.0938 68.7305C64.6399 68.7305 63.457 67.5476 63.457 66.0938V58.1836H68.7305ZM34.2773 5.27344C29.9157 5.27344 26.3672 8.82193 26.3672 13.1836V21.2695H31.6406V13.1836C31.6406 11.7274 32.8212 10.5469 34.2773 10.5469H55.5469C57.003 10.5469 58.1836 11.7274 58.1836 13.1836V21.2695H63.457V13.1836C63.457 8.82193 59.9085 5.27344 55.5469 5.27344H34.2773ZM58.1836 26.543V47.6367H31.6406V26.543H58.1836ZM36.9141 15.8203V21.2695H52.9102V15.8203H36.9141ZM21.0938 26.543H26.3672V42.3633H21.0938V26.543ZM26.3672 47.6367H21.0938V52.9102H26.3672V47.6367ZM21.0938 58.1836H26.3672V66.0938C26.3672 67.5476 25.1844 68.7305 23.7305 68.7305C22.2766 68.7305 21.0938 67.5476 21.0938 66.0938V58.1836ZM5.27344 34.4531V45C5.27344 46.4539 6.45627 47.6367 7.91016 47.6367H15.8203V26.543H13.1836C8.82193 26.543 5.27344 30.0915 5.27344 34.4531ZM79.4531 82.0898C79.4531 83.5437 78.2703 84.7266 76.8164 84.7266H13.1836C11.7297 84.7266 10.5469 83.5437 10.5469 82.0898V52.9102H15.8203V66.0938C15.8203 70.4554 19.3688 74.0039 23.7305 74.0039C28.0921 74.0039 31.6406 70.4554 31.6406 66.0938V52.9102H58.1836V66.0938C58.1836 70.4554 61.7321 74.0039 66.0938 74.0039C70.4554 74.0039 74.0039 70.4554 74.0039 66.0938V52.9102H79.4531V82.0898ZM82.0898 47.6367C83.5437 47.6367 84.7266 46.4539 84.7266 45V34.4531C84.7266 30.0915 81.1781 26.543 76.8164 26.543H74.0039V47.6367H82.0898Z" fill="url(#paint0_linear)"/>
<defs>
<linearGradient id="paint0_linear" x1="0" y1="0" x2="0" y2="90" gradientUnits="userSpaceOnUse">
<stop stop-color="#AC0039"/>
<stop offset="1" stop-color="#E3004C"/>
</linearGradient>
</defs>
</svg>
